<?xml version="1.0" standalone="no"?>
<!DOCTYPE svg PUBLIC "-//W3C//DTD SVG 20010904//EN"
 "http://www.w3.org/TR/2001/REC-SVG-20010904/DTD/svg10.dtd">
<svg version="1.0" xmlns="http://www.w3.org/2000/svg"
 width="512.000000pt" height="512.000000pt" viewBox="0 0 512.000000 512.000000"
 preserveAspectRatio="xMidYMid meet">

<g transform="translate(0.000000,512.000000) scale(0.100000,-0.100000)"
fill="#000000" stroke="none">
<path d="M4090 4410 c-28 -28 -25 -64 10 -103 17 -19 30 -39 30 -44 0 -5 -14
-22 -30 -38 -39 -37 -38 -79 2 -108 23 -17 31 -18 56 -8 17 7 40 23 53 37 l22
24 39 -36 c32 -29 45 -34 66 -29 64 15 75 75 23 129 l-31 32 21 20 c30 27 50
70 42 91 -21 60 -73 70 -118 23 -16 -16 -33 -30 -38 -30 -5 0 -25 14 -44 30
-39 35 -75 38 -103 10z"/>
<path d="M2340 4394 c-14 -2 -59 -9 -100 -15 -744 -106 -1381 -682 -1564
-1416 -57 -226 -73 -520 -41 -742 137 -941 943 -1641 1890 -1641 470 0 904
165 1262 479 442 387 685 977 643 1561 -11 157 -21 218 -61 368 -81 310 -239
587 -469 826 -308 320 -690 513 -1128 571 -100 13 -364 19 -432 9z m535 -164
c470 -101 864 -367 1127 -759 301 -451 377 -1025 204 -1546 -88 -262 -273
-546 -481 -737 -68 -62 -203 -168 -215 -168 -4 0 -15 21 -25 48 -9 26 -28 66
-41 89 l-24 42 0 479 0 480 33 13 c87 36 167 154 167 248 0 100 -66 208 -154
250 l-43 21 -6 233 c-4 143 -12 257 -21 297 -74 336 -331 600 -664 682 -110
27 -294 29 -394 5 -186 -46 -308 -115 -443 -251 -96 -97 -136 -158 -190 -283
-54 -126 -65 -202 -65 -456 l0 -224 -42 -19 c-127 -57 -192 -195 -154 -326 20
-70 88 -149 151 -175 l45 -18 0 -465 0 -465 -47 -102 c-27 -57 -50 -103 -53
-103 -3 0 -36 23 -75 52 -103 76 -310 289 -387 398 -78 109 -184 316 -227 441
-264 769 24 1614 704 2062 208 137 452 231 701 272 136 22 487 14 619 -15z
m-480 -1106 c91 -25 244 -15 337 21 12 5 39 -17 100 -77 68 -69 97 -90 159
-118 l76 -34 11 -69 c6 -39 25 -98 42 -135 l32 -64 -17 -227 c-9 -124 -23
-255 -31 -290 -44 -194 -211 -372 -409 -434 -98 -30 -253 -29 -345 2 -154 53
-288 167 -354 301 -47 98 -61 169 -81 432 l-16 217 35 73 c24 49 38 94 42 135
7 61 8 63 43 74 20 6 59 24 86 40 46 25 67 44 164 147 24 26 36 32 53 26 13
-4 46 -13 73 -20z m-648 -570 c23 -6 23 -7 38 -175 6 -63 5 -66 -20 -77 -39
-18 -96 -14 -133 8 -67 41 -80 144 -25 202 42 44 84 57 140 42z m1659 -10 c95
-45 98 -191 5 -239 -36 -18 -90 -20 -126 -3 -21 9 -24 16 -21 42 3 17 8 70 11
118 5 69 10 88 23 91 36 10 75 6 108 -9z m-742 -1049 c11 -95 35 -146 99 -208
67 -66 67 -65 -29 -111 -78 -38 -135 -49 -237 -44 -78 3 -103 9 -162 36 -38
18 -77 40 -87 49 -16 15 -14 18 32 60 60 54 100 132 107 210 l5 58 133 0 133
0 6 -50z m-685 -280 c77 -84 156 -226 210 -377 l30 -88 -23 0 c-38 0 -210 47
-305 84 -74 29 -207 90 -220 102 -6 6 39 125 62 164 34 58 88 121 121 141 50
31 78 25 125 -26z m1260 -13 c58 -57 124 -172 137 -238 6 -30 4 -31 -96 -78
-141 -67 -355 -136 -419 -136 -30 0 -27 20 22 142 53 130 126 256 188 320 65
68 92 67 168 -10z"/>
<path d="M2152 2618 c-46 -23 -41 -98 9 -118 27 -11 33 -11 57 7 39 29 41 74
6 102 -30 23 -39 25 -72 9z"/>
<path d="M2827 2610 c-18 -14 -27 -31 -27 -50 0 -38 44 -74 80 -65 32 8 50 31
50 65 0 58 -57 86 -103 50z"/>
<path d="M2336 2328 c-21 -30 -20 -50 5 -82 l20 -26 165 0 c151 0 166 2 184
20 24 24 26 57 4 88 -15 21 -21 22 -189 22 -168 0 -174 -1 -189 -22z"/>
<path d="M1160 4367 c-30 -15 -45 -54 -36 -91 13 -54 110 -65 136 -16 36 67
-33 142 -100 107z"/>
<path d="M4187 1316 c-58 -21 -103 -61 -131 -118 -45 -89 -31 -186 36 -262
111 -128 318 -96 389 59 22 48 25 142 6 188 -48 114 -184 174 -300 133z m156
-154 c10 -11 21 -38 24 -60 5 -37 2 -45 -30 -77 -56 -56 -126 -45 -163 26 -9
19 -13 41 -9 59 8 35 48 78 78 82 32 5 78 -9 100 -30z"/>
</g>
</svg>
